<svg width="141" height="56" viewBox="0 0 141 56" fill="none" xmlns="http://www.w3.org/2000/svg">
<g clip-path="url(#clip0_121_9455)">
<path d="M19.9035 9.73476C20.937 9.81743 21.805 10.2308 22.5078 10.9749C23.2518 11.6776 23.6238 12.5456 23.6238 13.5791C23.6238 14.6538 23.2311 15.5839 22.4457 16.3693C21.7017 17.1133 20.7923 17.4854 19.7175 17.4854H19.4075C17.7954 17.568 16.2659 17.9401 14.8192 18.6014C13.4137 19.2628 12.1736 20.1516 11.0989 21.2677C10.0654 22.3424 9.23872 23.6032 8.61867 25.0499C8.03996 26.4967 7.7506 28.0468 7.7506 29.7003V45.8216C7.7506 46.8963 7.35791 47.8057 6.57251 48.5498C5.82845 49.2938 4.91905 49.6659 3.8443 49.6659C2.76955 49.6659 1.86014 49.2938 1.11609 48.5498C0.372029 47.8057 0 46.8963 0 45.8216V29.7003C0 26.9721 0.496038 24.4299 1.48812 22.0737C2.52153 19.6762 3.9063 17.5887 5.64244 15.8112C7.37857 13.9924 9.42473 12.5456 11.7809 11.4709C14.1371 10.3961 16.6586 9.81743 19.3455 9.73476H19.7175H19.7795H19.9035Z" fill="black"/>
<path d="M68.3129 29.2663C68.3542 30.9611 68.1682 32.6145 67.7548 34.2267C67.3828 35.8388 66.8247 37.3889 66.0807 38.877C65.3366 40.3238 64.4065 41.6879 63.2905 42.9693C62.2157 44.2094 60.9756 45.3049 59.5702 46.2556C56.6353 48.2398 53.411 49.3765 49.8974 49.6659C46.3838 49.9139 43.0355 49.2938 39.8526 47.8057C38.3232 47.0617 36.8971 46.1523 35.5743 45.0775C34.2929 43.9614 33.1561 42.7213 32.164 41.3572C31.2133 39.9931 30.4072 38.5257 29.7458 36.9549C29.1258 35.3428 28.7331 33.6893 28.5678 31.9945C28.5264 31.6638 28.4851 31.3538 28.4437 31.0644C28.4437 30.7337 28.4437 30.403 28.4437 30.0723V29.2663V3.8443C28.4437 2.76955 28.8158 1.86014 29.5598 1.11609C30.3039 0.372029 31.2133 0 32.288 0C33.3628 0 34.2722 0.372029 35.0163 1.11609C35.7603 1.86014 36.1323 2.76955 36.1323 3.8443V14.0751V14.0131C38.2405 12.4423 40.5554 11.3055 43.0769 10.6028C45.6397 9.85877 48.244 9.65209 50.8895 9.98278C53.4937 10.3135 55.9532 11.1402 58.2681 12.463C60.5829 13.7444 62.5464 15.4392 64.1585 17.5474C65.44 19.2422 66.432 21.1023 67.1348 23.1278C67.8375 25.112 68.2302 27.1581 68.3129 29.2663ZM58.4541 36.7689C60.1075 34.454 60.8309 31.8498 60.6242 28.9563C60.5416 27.4268 60.1695 25.98 59.5082 24.6159C58.8468 23.2105 57.9787 21.9704 56.904 20.8956C56.3666 20.3996 55.7879 19.9656 55.1678 19.5935C54.5891 19.2215 53.9691 18.8701 53.3077 18.5394C51.7369 17.8367 50.1041 17.4854 48.4093 17.4854C46.7145 17.4854 45.0817 17.8161 43.5109 18.4774C41.9401 19.1802 40.576 20.1516 39.4186 21.3917C38.2612 22.6318 37.3931 24.0372 36.8144 25.608C36.0703 27.7162 35.905 29.8657 36.3184 32.0565C36.7731 34.2473 37.7238 36.1901 39.1706 37.8849C40.2867 39.2077 41.6094 40.1998 43.1389 40.8612C43.5109 41.0679 43.8829 41.2539 44.255 41.4192C44.6683 41.5846 45.0817 41.7499 45.4951 41.9153C45.1644 41.7913 44.8337 41.6672 44.503 41.5432C44.1723 41.3779 43.8416 41.2125 43.5109 41.0472C46.1151 42.2046 48.802 42.3906 51.5715 41.6052C52.977 41.2332 54.2584 40.6338 55.4158 39.8071C56.6146 38.9804 57.6273 37.9676 58.4541 36.7689Z" fill="black"/>
<path d="M135.508 51.0437C133.212 51.0437 131.145 50.4696 129.308 49.3214C127.47 48.1272 126.024 46.5197 124.967 44.4988C123.911 42.4779 123.383 40.2044 123.383 37.6782V4.81568C123.383 3.80523 123.704 2.9785 124.347 2.33549C124.99 1.69248 125.817 1.37097 126.827 1.37097C127.838 1.37097 128.665 1.69248 129.308 2.33549C129.951 2.9785 130.272 3.80523 130.272 4.81568V37.6782C130.272 39.5154 130.777 41.0541 131.788 42.2942C132.798 43.5343 134.038 44.1543 135.508 44.1543H137.851C138.677 44.1543 139.366 44.4758 139.917 45.1188C140.514 45.7618 140.813 46.5886 140.813 47.599C140.813 48.6095 140.423 49.4362 139.642 50.0792C138.907 50.7222 137.942 51.0437 136.748 51.0437H135.508ZM120.214 20.6614C119.249 20.6614 118.468 20.3858 117.871 19.8346C117.274 19.2835 116.976 18.5945 116.976 17.7678C116.976 16.8492 117.274 16.1143 117.871 15.5632C118.468 15.012 119.249 14.7365 120.214 14.7365H136.128C137.093 14.7365 137.874 15.012 138.471 15.5632C139.068 16.1143 139.366 16.8492 139.366 17.7678C139.366 18.5945 139.068 19.2835 138.471 19.8346C137.874 20.3858 137.093 20.6614 136.128 20.6614H120.214Z" fill="black"/>
<path fill-rule="evenodd" clip-rule="evenodd" d="M111.866 29.7726C111.866 40.0459 103.512 48.3741 93.2067 48.3741C91.1351 48.3741 89.1423 48.0375 87.2804 47.4163L78.2796 53.0245L79.4985 42.3923C76.4255 39.0764 74.5479 34.6431 74.5479 29.7726C74.5479 19.4994 82.9017 11.1712 93.2067 11.1712C103.512 11.1712 111.866 19.4994 111.866 29.7726Z" fill="#FD3543"/>
<path fill-rule="evenodd" clip-rule="evenodd" d="M72.4814 29.7726C72.4814 18.3519 81.7667 9.10437 93.2071 9.10437C104.648 9.10437 113.933 18.3519 113.933 29.7726C113.933 41.1934 104.648 50.4409 93.2071 50.4409C91.2576 50.4409 89.368 50.1719 87.5751 49.6681L79.373 54.7786C78.6998 55.1981 77.8459 55.1953 77.1754 54.7713C76.505 54.3474 76.1363 53.5771 76.2267 52.7891L77.3407 43.0709C74.3102 39.4783 72.4814 34.8368 72.4814 29.7726ZM93.2071 13.238C84.0376 13.238 76.6151 20.6468 76.6151 29.7726C76.6151 34.1011 78.2814 38.0379 81.0148 40.9874C81.4246 41.4296 81.6209 42.0287 81.5523 42.6277L80.8211 49.006L86.1879 45.6621C86.7105 45.3365 87.351 45.2608 87.9351 45.4557C89.5887 46.0075 91.3606 46.3073 93.2071 46.3073C102.377 46.3073 109.799 38.8985 109.799 29.7726C109.799 20.6468 102.377 13.238 93.2071 13.238Z" fill="black"/>
<path fill-rule="evenodd" clip-rule="evenodd" d="M88.729 21.3641C89.1095 21.3641 89.4179 21.6726 89.4179 22.0531V39.9105C89.4179 40.291 89.1095 40.5994 88.729 40.5994C88.3485 40.5994 88.04 40.291 88.04 39.9105V22.0531C88.04 21.6726 88.3485 21.3641 88.729 21.3641Z" fill="white"/>
<path fill-rule="evenodd" clip-rule="evenodd" d="M99.7069 21.3993L99.9242 22.0531C99.7069 21.3993 99.7066 21.3994 99.7063 21.3995L99.7056 21.3997L99.704 21.4003L99.6998 21.4017L99.6879 21.4058C99.6783 21.4091 99.6656 21.4136 99.6499 21.4194C99.6186 21.4308 99.5754 21.4472 99.522 21.4687C99.4154 21.5117 99.2675 21.5757 99.092 21.6632C98.7426 21.8374 98.275 22.1089 97.8046 22.4997C96.8588 23.2854 95.8766 24.5799 95.8766 26.5174C95.8766 28.455 96.8588 29.7494 97.8046 30.5351C98.275 30.9259 98.7426 31.1975 99.092 31.3717C99.1421 31.3966 99.1899 31.4197 99.2352 31.4409V39.9105C99.2352 40.291 99.5437 40.5994 99.9242 40.5994C100.305 40.5994 100.613 40.291 100.613 39.9105V30.9977C100.613 30.987 100.613 30.9763 100.613 30.9657V22.0531C100.613 21.8317 100.507 21.6239 100.327 21.4944C100.148 21.3649 99.9169 21.3295 99.7069 21.3993ZM99.2352 29.8733C99.0593 29.7625 98.8718 29.6304 98.6851 29.4753C97.9516 28.8659 97.2545 27.9281 97.2545 26.5174C97.2545 25.1067 97.9516 24.169 98.6851 23.5596C98.8718 23.4045 99.0593 23.2724 99.2352 23.1616V29.8733Z" fill="white"/>
<path fill-rule="evenodd" clip-rule="evenodd" d="M85.3706 21.3641C85.7511 21.3641 86.0595 21.6726 86.0595 22.0531V27.7162C86.0595 27.9064 86.2138 28.0607 86.404 28.0607H91.0544C91.2446 28.0607 91.3988 27.9064 91.3988 27.7162V22.0531C91.3988 21.6726 91.7073 21.3641 92.0878 21.3641C92.4683 21.3641 92.7767 21.6726 92.7767 22.0531V27.7162C92.7767 28.6674 92.0056 29.4385 91.0544 29.4385H86.404C85.4528 29.4385 84.6816 28.6674 84.6816 27.7162V22.0531C84.6816 21.6726 84.9901 21.3641 85.3706 21.3641Z" fill="white"/>
</g>
<defs>
<clipPath id="clip0_121_9455">
<rect width="141" height="56" fill="white"/>
</clipPath>
</defs>
</svg>
