<svg width="570" height="576" viewBox="0 0 570 576" fill="none" xmlns="http://www.w3.org/2000/svg">
<g clip-path="url(#clip0_353_556)">
<path d="M12.0153 276.069C2.64813 323.842 -16.3395 420.663 29.099 485.434C111.558 602.99 391.993 594.706 510.447 446.495C520.683 433.681 572.057 366.842 566.451 275.318C556.727 116.564 381.235 -24.1467 240.591 3.49714C158.276 19.6704 103.567 90.4299 81.0457 119.559C71.7629 131.558 29.2534 188.155 12.0153 276.069Z" fill="url(#paint0_linear_353_556)"/>
<path d="M202.164 507.769C202.104 508.271 200.518 508.491 198.63 508.26C196.743 508.03 195.255 507.437 195.316 506.936C195.378 506.434 196.963 506.213 198.85 506.444C200.738 506.674 202.226 507.267 202.164 507.769Z" fill="url(#paint1_linear_353_556)"/>
<path d="M373.81 497.582C390.307 497.582 407.008 494.663 407.008 489.084C407.008 483.505 390.307 480.586 373.81 480.586C357.313 480.586 340.612 483.505 340.612 489.084C340.612 494.663 357.313 497.582 373.81 497.582ZM373.81 482.68C395.961 482.68 404.91 487.205 404.91 489.084C404.91 490.962 395.961 495.485 373.81 495.485C351.659 495.485 342.709 490.96 342.709 489.084C342.709 487.208 351.659 482.68 373.81 482.68Z" fill="white"/>
<g style="mix-blend-mode:soft-light" opacity="0.6">
<path d="M373.81 492.47C365.739 492.47 359.196 490.954 359.196 489.084C359.196 487.214 365.739 485.698 373.81 485.698C381.881 485.698 388.424 487.214 388.424 489.084C388.424 490.954 381.881 492.47 373.81 492.47Z" fill="white"/>
</g>
<path opacity="0.29" d="M167.498 190.152L340.406 472.705L341.984 475.282L344.082 478.714L347.758 484.72L350.434 489.08C350.434 491.986 360.262 494.348 372.614 494.494C373.011 494.494 373.41 494.494 373.816 494.494C386.731 494.494 397.196 492.069 397.196 489.071L399.643 484.636L404.542 475.757L406.207 472.731L408.302 468.932L418.593 450.272L436.319 418.143L456.285 381.937L458.275 378.319L480.346 338.303L494.375 312.875L556.465 200.304C542.094 189.3 508.556 165.479 459.67 149.081C452.409 146.643 444.812 144.372 436.877 142.334C435.045 141.858 433.193 141.396 431.32 140.949C429.916 140.615 428.504 140.289 427.084 139.972C425.966 139.713 424.834 139.468 423.702 139.223H423.688C405.71 135.374 387.439 133.049 369.069 132.274C366.728 132.17 364.366 132.093 361.983 132.044C328.707 131.338 295.517 135.695 263.552 144.967C262.601 145.232 261.658 145.512 260.728 145.79C260.456 145.872 260.182 145.95 259.917 146.032C256.92 146.936 253.98 147.868 251.097 148.828C243.218 151.441 235.79 154.228 228.827 157.092C199.455 169.181 178.424 182.65 167.498 190.152Z" fill="url(#paint2_linear_353_556)"/>
<path d="M229.207 447.552L263.35 367.611C263.751 366.673 263.942 365.658 263.911 364.638C263.879 363.618 263.626 362.617 263.169 361.705C262.711 360.792 262.06 359.991 261.261 359.355C260.462 358.72 259.534 358.266 258.542 358.025L196.012 342.854C194.376 342.456 192.653 342.659 191.154 343.424C189.655 344.189 188.481 345.466 187.844 347.024L156.441 423.848C156.072 424.751 155.895 425.722 155.922 426.698C155.949 427.675 156.179 428.634 156.598 429.516C157.016 430.399 157.614 431.184 158.354 431.822C159.093 432.461 159.957 432.938 160.891 433.224L220.692 451.512C222.351 452.017 224.137 451.892 225.708 451.161C227.28 450.43 228.526 449.145 229.207 447.552Z" fill="#26264F"/>
<path d="M227.661 443.707L259.552 369.051C259.927 368.175 260.106 367.227 260.077 366.274C260.048 365.321 259.812 364.386 259.384 363.534C258.957 362.682 258.349 361.933 257.603 361.339C256.857 360.746 255.99 360.322 255.063 360.097L196.647 345.917C195.119 345.546 193.509 345.736 192.109 346.451C190.709 347.166 189.612 348.359 189.017 349.813L159.685 421.572C159.34 422.417 159.175 423.324 159.2 424.236C159.226 425.147 159.441 426.044 159.832 426.868C160.223 427.692 160.782 428.426 161.472 429.022C162.163 429.618 162.97 430.064 163.843 430.332L219.702 447.406C221.252 447.88 222.922 447.765 224.391 447.082C225.861 446.399 227.026 445.197 227.661 443.707Z" fill="url(#paint3_linear_353_556)"/>
<path d="M246.502 420.322L247.386 412.231L247.406 412.043L247.495 411.875L252.926 401.53C252.926 401.53 252.926 401.53 252.926 401.53C253.589 400.264 253.936 398.857 253.936 397.428V397.428V391.984L249.298 402.704L248.744 403.985L247.709 403.049L247.709 403.049L247.709 403.049L247.709 403.048L247.707 403.047L247.698 403.039L247.663 403.007C247.631 402.979 247.585 402.937 247.526 402.884C247.406 402.778 247.234 402.624 247.022 402.437C246.596 402.063 246.014 401.557 245.381 401.026C244.748 400.494 244.07 399.943 243.455 399.477C242.978 399.115 242.569 398.829 242.26 398.642C242.259 398.653 242.259 398.663 242.259 398.674C242.259 398.983 242.324 399.368 242.457 399.738C242.591 400.114 242.768 400.403 242.939 400.574C243.331 400.964 243.476 401.533 243.549 401.947C243.632 402.417 243.668 402.974 243.678 403.56C243.698 404.73 243.618 406.168 243.542 407.548L243.541 407.558C243.463 408.965 243.389 410.313 243.407 411.372C243.417 411.904 243.449 412.32 243.504 412.613C243.527 412.734 243.549 412.814 243.566 412.862L243.883 413.124L243.849 413.635L243.485 419.063L246.502 420.322ZM243.585 412.906C243.585 412.906 243.584 412.904 243.582 412.901C243.584 412.904 243.585 412.906 243.585 412.906ZM241.925 398.465C241.925 398.465 241.926 398.465 241.927 398.465L241.925 398.465Z" fill="#FFECC3" stroke="black" stroke-width="2"/>
<path d="M60.9183 319.176L61.5747 321.065C44.2152 327.097 35.0593 342.895 30.6926 350.478C25.3526 359.753 22.9442 367.816 22.1914 375.852C21.4341 383.935 22.3409 392.076 23.7591 401.587C24.0523 403.553 24.3664 405.572 24.6903 407.654C27.5011 425.721 31.0523 448.547 28.0849 482.749C28.0849 482.749 28.0848 482.75 28.0848 482.75L26.0923 482.577C25.6269 487.957 25.0341 493.215 24.4592 498.313C21.7286 522.529 19.4026 543.158 33.0576 556.29M60.9183 319.176L34.4438 554.849M60.9183 319.176L61.5748 321.065C68.0032 318.831 72.281 319.053 80.1968 320.678C82.1166 321.072 84.2458 321.549 86.6583 322.088C94.2964 323.798 104.775 326.142 120.439 328.524C128.179 329.701 134.522 330.482 139.879 331.129C140.282 331.178 140.68 331.226 141.072 331.273C145.899 331.855 149.866 332.333 153.366 332.918C160.839 334.167 166.069 335.884 172.501 340.096L60.9183 319.176ZM33.0576 556.29L34.4438 554.849M33.0576 556.29L34.4439 554.849C34.4439 554.849 34.4439 554.849 34.4438 554.849M33.0576 556.29C36.5381 559.637 40.4303 561.388 48.2167 564.889C79.0908 578.777 106.785 576.383 123.609 574.718C142.121 572.885 151.478 571.838 156.387 565.299C161.427 558.588 159.894 550.708 157.779 539.837C156.603 533.792 155.247 526.822 154.741 518.614C153.73 502.128 157.481 489.063 164.98 462.939L164.985 462.921C172.278 437.512 180.483 419.84 186.848 406.131C195.704 387.056 200.997 375.656 195.313 361.765L193.462 362.522C197.999 373.611 195.145 382.994 188.529 397.688C187.454 400.077 186.284 402.595 185.043 405.269C178.675 418.981 170.402 436.8 163.062 462.369L162.972 462.685C155.552 488.531 151.713 501.906 152.744 518.736L152.744 518.737C153.259 527.085 154.657 534.27 155.839 540.351C156.301 542.726 156.731 544.933 157.062 546.974C158.263 554.385 158.183 559.577 154.788 564.098L154.788 564.098C152.719 566.854 149.655 568.581 144.617 569.833C139.523 571.098 132.72 571.806 123.412 572.728C106.647 574.386 79.4044 576.725 49.0372 563.065L49.0369 563.065C41.1554 559.521 37.6234 557.906 34.4438 554.849" fill="url(#paint4_linear_353_556)" stroke="black" stroke-width="4"/>
<path d="M126.837 302.131L126.837 302.13C128.684 294.062 125.447 286.537 124.713 284.88L124.713 284.88C123.159 281.371 122.206 279.429 121.471 278.218C120.771 277.067 120.284 276.6 119.624 276.057L117.656 274.57C117.621 274.554 117.581 274.535 117.541 274.518L117.541 274.518L117.536 274.516C117.334 274.428 116.916 274.324 116.304 274.232C115.718 274.144 115.033 274.078 114.35 274.037C113.667 273.995 113.002 273.978 112.458 273.984C111.893 273.991 111.554 274.024 111.443 274.048C111.406 274.061 111.215 274.152 110.915 274.576C110.619 274.993 110.298 275.62 109.97 276.476C109.316 278.182 108.696 280.644 108.186 283.765C107.169 289.996 106.615 298.717 107.056 308.963L107.06 309.061L107.045 309.159C106.924 309.938 106.809 310.725 106.698 311.518L106.697 311.52C106.239 314.759 105.873 317.928 105.597 321.027L105.597 321.029C105.511 321.981 105.159 322.757 104.584 323.347C104.023 323.922 103.312 324.257 102.601 324.453C101.21 324.837 99.5744 324.752 98.3621 324.658L98.3611 324.658C93.4385 324.271 89.8359 324.342 87.4422 324.714C86.2408 324.901 85.4019 325.155 84.866 325.429C84.3153 325.709 84.2387 325.926 84.2296 325.965L84.2294 325.966C84.2018 326.084 84.2062 326.39 84.4456 326.942C84.6749 327.471 85.0728 328.118 85.6496 328.855C86.8005 330.325 88.5809 332.048 90.8583 333.763C95.3965 337.183 101.789 340.486 108.83 341.712C118.509 341.797 127.245 341.207 133.331 340.14C136.399 339.602 138.714 338.956 140.133 338.256C140.852 337.902 141.235 337.584 141.402 337.351C141.5 337.213 141.511 337.139 141.482 337.052C141.469 337.04 141.451 337.023 141.425 337.002C141.325 336.918 141.168 336.808 140.943 336.67C140.494 336.396 139.862 336.069 139.075 335.692C138.107 335.228 136.962 334.713 135.707 334.149C134.913 333.792 134.076 333.416 133.213 333.02C131.007 332.01 128.665 330.889 126.601 329.713C124.557 328.548 122.697 327.279 121.522 325.95C117.96 321.926 117.689 317.714 117.492 314.647C117.459 314.138 117.429 313.661 117.385 313.221L117.325 312.61L117.843 312.28C117.928 312.225 118.038 312.158 118.168 312.078C118.991 311.571 120.649 310.552 122.338 309.036C124.302 307.275 126.194 304.94 126.837 302.131Z" fill="#FFECC4" stroke="black" stroke-width="2"/>
<path d="M123.148 265.444C123.124 272.073 119.638 279.15 117.86 280.283C116.814 281.021 115.908 281.905 115.178 282.903C115.002 283.148 114.86 283.411 114.757 283.688C113.135 287.864 120.551 292.777 119.12 294.647C118.083 295.996 113.042 294.191 112.442 295.362C111.879 296.466 116.058 298.748 115.425 300.067C114.943 301.066 112.364 300.154 110.737 301.686C109.926 302.447 110.165 303.035 109.306 305.374C108.866 306.603 108.3 307.792 107.615 308.928C105.057 312.818 97.8135 314.24 96.4184 312.683C96.0327 312.249 96.3642 311.874 95.9695 310.428C95.6481 309.405 95.1716 308.426 94.5533 307.519C93.0467 305.288 89.4308 303.694 85.7849 301.341C79.0263 296.981 77.1883 293.266 76.6369 292.011C76.441 291.563 76.3356 291.226 76.2301 290.983C74.4734 286.097 74.4644 278.923 76.9171 274.509C81.0271 267.119 90.2956 270.63 97.8828 263.304C106.621 254.854 101.42 243.304 106.172 242.028C111.406 240.622 123.194 253.19 123.148 265.444Z" fill="#26264F"/>
<path d="M118.481 297.901C117.246 296.2 115.062 297.798 115.05 300.001C115.038 302.205 117.172 304.492 119.243 304.056C121.313 303.62 120.148 300.193 118.481 297.901Z" fill="url(#paint5_linear_353_556)"/>
<path d="M117.385 291.497L120.701 295.806C120.701 295.806 124.268 301.084 126.35 298.191C128.051 295.82 128.482 295.882 128.596 295.981C128.615 296 128.622 296.026 128.626 296.026C128.631 296.026 128.375 294.841 128.124 293.823C129.414 295.67 130.372 297.727 130.955 299.904C131.665 302.588 132.433 305.46 130.922 308.22C130.834 308.379 129.169 311.317 126.059 312.028C126.059 312.028 124.834 312.308 119.664 311.397C119.664 311.397 125.313 307.295 125.4 306.32C125.637 303.669 121.961 302.235 119.242 296.802C118.397 295.121 117.773 293.338 117.385 291.497Z" fill="#26264F"/>
<path style="mix-blend-mode:multiply" opacity="0.3" d="M107.629 553.007C113.075 542.168 99.7289 527.762 108.452 511.237C115.862 497.203 129.31 500.349 135.495 487.485C142.965 471.952 126.719 460.331 127.301 436.707C127.995 408.452 152.32 380.17 166.635 382.651C175.897 384.256 177.087 398.065 183.604 413.183C177.84 425.82 171.099 441.654 164.997 462.915C157.494 489.04 153.742 502.118 154.753 518.608C156.161 541.578 164.233 554.851 156.399 565.293C151.49 571.83 142.133 572.879 123.621 574.712C106.797 576.376 79.109 578.771 48.2288 564.883C44.318 563.126 41.3932 561.81 39.0077 560.51C87.2392 567.751 103.308 561.6 107.629 553.007Z" fill="url(#paint6_linear_353_556)"/>
<path d="M176.28 342.26L176.28 342.26C172.619 340.679 170.616 339.908 168.213 340.489C165.399 341.177 162.835 343.589 160.637 347.648C158.456 351.679 156.768 357.103 155.605 363.338C153.281 375.8 153.109 391.18 155.004 404.34C156.085 411.845 157.665 422.782 161.937 433.568C166.203 444.339 173.114 454.854 184.796 461.61L184.797 461.61C186.479 462.584 191.909 465.723 199.183 467.572C206.456 469.421 215.465 469.954 224.39 465.845L224.391 465.845C239.435 458.927 249.015 441.186 247.759 420.932L240.523 417.809C238.117 420.197 235.388 422.546 232.57 424.184C229.491 425.973 226.053 427.057 222.744 426.062C220.21 425.3 218.54 423.552 217.308 421.156C216.109 418.821 215.258 415.739 214.388 412.09C214.099 410.877 213.805 409.588 213.494 408.223C211.913 401.294 209.886 392.408 205.791 381.543C194.707 352.135 182.255 344.838 176.28 342.26Z" fill="url(#paint7_linear_353_556)" stroke="black" stroke-width="3"/>
<path d="M304.671 344.878C305.949 347.952 307.462 350.922 309.199 353.763L304.683 344.878H304.671Z" fill="white"/>
<path d="M310.973 352.859L310.986 352.883L310.998 352.907L343.897 417.69L343.899 417.694L345.163 420.169L345.173 420.188L345.182 420.207L345.225 420.296C355.439 439.229 375.089 452.011 397.63 452.011H397.631C404.301 452.016 410.921 450.878 417.204 448.649L434.566 417.179L434.566 417.179L454.531 380.974L454.801 380.484L455.207 380.251C455.243 380.214 455.299 380.151 455.372 380.057C455.531 379.852 455.712 379.575 455.879 379.271C456.047 378.965 456.173 378.684 456.245 378.478C456.25 378.464 456.254 378.451 456.258 378.439L456.173 377.993L456.522 377.361L478.594 337.337L478.595 337.337L492.287 312.52C486.155 277.603 447.14 249.988 398.911 249.513L398.893 249.513L398.874 249.513C398.473 249.501 398.067 249.501 397.63 249.501C395.256 249.501 392.904 249.569 390.575 249.703L390.57 249.704C377.434 250.433 365.054 253.19 353.936 257.56L353.934 257.561C351.339 258.577 348.82 259.681 346.375 260.871L346.371 260.873L345.8 261.149C345.799 261.15 345.798 261.15 345.797 261.151C343.449 262.298 341.177 263.53 338.98 264.847L338.973 264.851C316.391 278.26 302.116 299.075 302.115 322.233C302.122 329.719 303.609 337.129 306.489 344.038L310.959 352.833L310.973 352.859Z" fill="white" stroke="black" stroke-width="4"/>
<path opacity="0.29" d="M356.947 272.179C350.09 260.309 352.597 246.032 362.545 240.292C372.494 234.551 386.118 239.519 392.975 251.389C399.832 263.259 397.325 277.536 387.376 283.277C377.428 289.017 363.804 284.049 356.947 272.179Z" fill="url(#paint8_linear_353_556)"/>
<path d="M250.187 180.945C248.242 200.736 256.928 219.817 272.816 234.674C288.706 249.532 311.725 260.075 338.123 262.667C364.522 265.258 389.153 259.394 407.632 247.909C426.109 236.426 438.344 219.399 440.289 199.608C442.234 179.817 433.548 160.736 417.66 145.88C401.77 131.021 378.751 120.479 352.353 117.887C325.955 115.296 301.323 121.16 282.844 132.644C264.367 144.127 252.132 161.154 250.187 180.945Z" fill="white" stroke="black" stroke-width="4"/>
<path d="M269.169 172.368L267.34 190.985C266.509 199.442 269.074 207.882 274.469 214.449C279.865 221.015 287.649 225.171 296.11 226.002L308.065 227.174C310.317 232.207 313.86 236.555 318.336 239.778C322.811 243.001 328.059 244.985 333.548 245.528L345.99 246.748C351.482 247.288 357.018 246.364 362.037 244.07C367.055 241.777 371.376 238.196 374.559 233.691L383.432 234.562C391.894 235.391 400.339 232.827 406.91 227.433C413.48 222.04 417.639 214.26 418.47 205.803L420.298 187.2C420.672 183.38 419.513 179.567 417.075 176.601C414.637 173.635 411.121 171.758 407.298 171.383L284.993 159.387C281.173 159.012 277.36 160.169 274.392 162.603C271.425 165.037 269.546 168.55 269.169 172.368Z" fill="url(#paint9_linear_353_556)"/>
<path d="M411.068 176.758L281.186 164.007C280.061 163.896 278.937 164.237 278.063 164.955C277.189 165.672 276.636 166.707 276.525 167.832L273.142 202.257C272.968 204.028 273.505 205.795 274.634 207.17C275.764 208.545 277.394 209.415 279.165 209.589L404.176 221.862C405.948 222.036 407.716 221.499 409.092 220.37C410.468 219.241 411.338 217.612 411.512 215.842L414.896 181.416C415.006 180.291 414.665 179.168 413.947 178.295C413.229 177.421 412.194 176.868 411.068 176.758Z" fill="url(#paint10_linear_353_556)"/>
<path d="M363.007 197.595C362.246 196.247 361.838 194.776 361.978 193.244C362.466 188.288 368.116 184.785 374.597 185.427C381.079 186.069 385.941 190.596 385.455 195.554C385.305 197.085 384.617 198.448 383.602 199.623L363.007 197.595Z" fill="white"/>
<path d="M303.886 191.798C303.124 190.448 302.715 188.977 302.857 187.445C303.344 182.489 308.994 178.986 315.478 179.628C321.962 180.269 326.823 184.797 326.335 189.755C326.185 191.285 325.498 192.649 324.483 193.824L303.886 191.798Z" fill="white"/>
<path d="M335.291 263.401L335.863 257.567C286.284 252.704 249.113 211.557 249.403 161.856L243.539 161.823C243.43 187.133 252.774 211.573 269.744 230.361C286.714 249.148 310.088 260.93 335.291 263.401Z" fill="url(#paint11_linear_353_556)"/>
<path d="M439.079 194.826L446.577 195.544C447.172 192.372 447.627 189.193 447.932 186.099L446.301 185.939C444.311 162.041 433.998 139.597 417.157 122.516C400.317 105.434 378.015 94.7962 354.136 92.454C330.257 90.1119 306.312 96.2138 286.471 109.698C266.629 123.181 252.147 143.193 245.546 166.248L243.918 166.088C243.613 169.173 243.442 172.389 243.409 175.616L250.901 176.369C260.203 127.993 304.272 95.149 353.403 99.9689C402.534 104.789 439.365 145.568 439.079 194.826Z" fill="url(#paint12_linear_353_556)"/>
<path d="M428.529 226.681L450.841 228.87C452.076 228.99 453.308 228.615 454.267 227.828C455.226 227.041 455.833 225.905 455.954 224.671L462.651 156.464C462.773 155.23 462.398 153.998 461.611 153.04C460.823 152.082 459.687 151.475 458.453 151.354L436.141 149.165C434.906 149.044 433.673 149.419 432.714 150.206C431.754 150.994 431.147 152.129 431.026 153.364L424.328 221.569C424.207 222.803 424.582 224.036 425.37 224.994C426.158 225.953 427.294 226.56 428.529 226.681Z" fill="url(#paint13_linear_353_556)"/>
<path d="M337.47 267.005L340.558 254.621C340.726 253.935 340.616 253.211 340.253 252.606C339.889 252.001 339.301 251.565 338.617 251.391L300.714 241.928C300.028 241.76 299.303 241.87 298.698 242.233C298.093 242.596 297.656 243.184 297.482 243.868L294.395 256.254C294.226 256.94 294.336 257.664 294.699 258.269C295.063 258.874 295.651 259.31 296.336 259.484L334.239 268.936C334.923 269.105 335.647 268.997 336.252 268.635C336.857 268.273 337.295 267.687 337.47 267.005Z" fill="url(#paint14_linear_353_556)"/>
<path d="M230.332 207.239L252.646 209.427C253.257 209.488 253.875 209.427 254.463 209.248C255.051 209.07 255.598 208.778 256.072 208.388C256.547 207.998 256.941 207.519 257.23 206.977C257.519 206.435 257.699 205.842 257.759 205.231L264.456 137.024C264.577 135.79 264.202 134.558 263.414 133.6C262.627 132.642 261.49 132.035 260.255 131.914L237.944 129.725C236.709 129.605 235.477 129.979 234.518 130.766C233.56 131.553 232.953 132.688 232.831 133.922L226.133 202.129C226.073 202.74 226.134 203.357 226.312 203.944C226.491 204.532 226.783 205.079 227.173 205.553C227.563 206.028 228.043 206.421 228.585 206.71C229.127 206.999 229.721 207.179 230.332 207.239Z" fill="url(#paint15_linear_353_556)"/>
<g style="mix-blend-mode:multiply" opacity="0.3">
<path d="M285.93 202.499C320.097 203.616 358.449 192.483 370.71 158.682C375.288 145.084 373.261 130.84 366.975 118.156C413.158 128.115 445.959 162.514 442.295 199.816C438.269 240.891 391.546 269.934 337.949 264.676C299.002 260.858 267.144 239.976 254.189 213.085C260.201 213.332 266.197 212.297 271.777 210.047C276.423 208.269 280.692 202.729 285.93 202.499Z" fill="#D8DEE8"/>
</g>
<path d="M339.972 351.154L372.441 349.245C376.146 349.027 378.741 345.954 378.221 342.405L376.658 331.725C376.138 328.166 372.704 325.456 368.993 325.675L336.524 327.584C332.819 327.802 330.224 330.863 330.744 334.424L332.307 345.102C332.827 348.661 336.261 351.37 339.972 351.154Z" fill="#D8DEE8"/>
<path d="M191.535 146.037L191.936 147.101L201.698 173.045L191.535 146.037ZM191.535 146.037L192.245 145.148M191.535 146.037L192.245 145.148M192.245 145.148C201.306 133.807 206.473 120.562 206.473 106.443C206.473 85.9322 195.552 67.2209 177.615 53.572C159.677 39.9219 134.808 31.4213 107.255 31.4213C79.7023 31.4213 54.8312 39.9219 36.8913 53.572C18.953 67.221 8.03108 85.9323 8.03108 106.443C8.03108 126.953 18.953 145.664 36.8913 159.313C54.8312 172.964 79.7023 181.464 107.255 181.464C127.902 181.464 147.052 176.689 162.907 168.544L163.5 168.24M192.245 145.148L163.5 168.24M163.5 168.24L164.157 168.352M163.5 168.24L164.157 168.352M164.157 168.352C174.848 170.175 191.431 173.237 200.173 174.862M164.157 168.352L200.173 174.862M200.173 174.862C200.41 174.906 200.655 174.886 200.882 174.804M200.173 174.862L200.882 174.804M200.882 174.804C201.11 174.722 201.311 174.582 201.466 174.397L202.996 175.68M200.882 174.804L202.996 175.68M202.996 175.68L201.466 174.397C201.621 174.212 201.725 173.99 201.765 173.752M202.996 175.68L201.765 173.752M201.765 173.752C201.806 173.515 201.782 173.271 201.698 173.046L201.765 173.752Z" fill="url(#paint16_linear_353_556)" stroke="black" stroke-width="4"/>
<path d="M157.678 295.064L157.997 295.534L157.756 296.049L151.211 310.056C151.146 310.196 151.119 310.351 151.133 310.505C151.147 310.659 151.202 310.807 151.292 310.933C151.382 311.059 151.504 311.159 151.645 311.222C151.787 311.286 151.943 311.311 152.097 311.294L152.097 311.294C157.027 310.772 166.377 309.788 172.398 309.236L172.73 309.205L173.014 309.38C181.488 314.603 191.946 318.088 203.441 318.981C218.78 320.172 232.999 316.515 243.584 309.686C254.168 302.858 261.074 292.898 261.963 281.453C262.853 270.007 257.57 259.101 248.168 250.721C238.766 242.34 225.284 236.532 209.944 235.341C194.604 234.149 180.386 237.804 169.801 244.632C159.217 251.459 152.311 261.418 151.421 272.869L151.421 272.869C150.809 280.739 153.118 288.35 157.678 295.064ZM156.85 295.626C152.18 288.749 149.792 280.915 150.424 272.792L156.85 295.626ZM151.236 312.135C150.933 311.998 150.671 311.784 150.478 311.514L203.363 319.978C191.717 319.073 181.105 315.541 172.489 310.232C166.477 310.783 157.134 311.766 152.203 312.289C151.872 312.324 151.539 312.271 151.236 312.135Z" fill="url(#paint17_linear_353_556)" stroke="black" stroke-width="2"/>
</g>
<defs>
<linearGradient id="paint0_linear_353_556" x1="566.739" y1="1.35283e-05" x2="0.511118" y2="566.74" gradientUnits="userSpaceOnUse">
<stop offset="0.427083" stop-color="#FF555F"/>
<stop offset="1" stop-color="#FF7B30"/>
</linearGradient>
<linearGradient id="paint1_linear_353_556" x1="194.572" y1="505.462" x2="201.402" y2="506.291" gradientUnits="userSpaceOnUse">
<stop stop-color="#FF9085"/>
<stop offset="1" stop-color="#FB6FBB"/>
</linearGradient>
<linearGradient id="paint2_linear_353_556" x1="556.465" y1="313.239" x2="167.498" y2="313.239" gradientUnits="userSpaceOnUse">
<stop stop-color="#E3DA8D"/>
<stop offset="1" stop-color="#F6E971"/>
</linearGradient>
<linearGradient id="paint3_linear_353_556" x1="207.013" y1="399.365" x2="237.307" y2="339.563" gradientUnits="userSpaceOnUse">
<stop stop-color="#FF9085"/>
<stop offset="1" stop-color="#FB6FBB"/>
</linearGradient>
<linearGradient id="paint4_linear_353_556" x1="161.237" y1="389.281" x2="52.302" y2="493.359" gradientUnits="userSpaceOnUse">
<stop stop-color="#F5E874"/>
<stop offset="1" stop-color="#FFB36C"/>
</linearGradient>
<linearGradient id="paint5_linear_353_556" x1="130.061" y1="273.004" x2="81.3632" y2="384.8" gradientUnits="userSpaceOnUse">
<stop stop-color="#FFC444"/>
<stop offset="1" stop-color="#F36F56"/>
</linearGradient>
<linearGradient id="paint6_linear_353_556" x1="201.471" y1="431.395" x2="92.5388" y2="535.472" gradientUnits="userSpaceOnUse">
<stop stop-color="#E38D8D"/>
<stop offset="1" stop-color="#F671A1"/>
</linearGradient>
<linearGradient id="paint7_linear_353_556" x1="201.047" y1="384.905" x2="87.8157" y2="498.158" gradientUnits="userSpaceOnUse">
<stop stop-color="#FFC774"/>
<stop offset="1" stop-color="#FF6F6F"/>
</linearGradient>
<linearGradient id="paint8_linear_353_556" x1="396.841" y1="261.784" x2="353.082" y2="261.784" gradientUnits="userSpaceOnUse">
<stop stop-color="#E1E38D"/>
<stop offset="1" stop-color="#F6A171"/>
</linearGradient>
<linearGradient id="paint9_linear_353_556" x1="411.776" y1="225.943" x2="269.572" y2="170.57" gradientUnits="userSpaceOnUse">
<stop stop-color="#FFC444"/>
<stop offset="1" stop-color="#F36F56"/>
</linearGradient>
<linearGradient id="paint10_linear_353_556" x1="413.086" y1="199.854" x2="274.712" y2="186.255" gradientUnits="userSpaceOnUse">
<stop stop-color="#444B8C"/>
<stop offset="1" stop-color="#26264F"/>
</linearGradient>
<linearGradient id="paint11_linear_353_556" x1="338.206" y1="217.786" x2="236.962" y2="207.656" gradientUnits="userSpaceOnUse">
<stop stop-color="#444B8C"/>
<stop offset="1" stop-color="#26264F"/>
</linearGradient>
<linearGradient id="paint12_linear_353_556" x1="450.64" y1="149.393" x2="245.644" y2="128.882" gradientUnits="userSpaceOnUse">
<stop stop-color="#262A4F"/>
<stop offset="1" stop-color="#05050A"/>
</linearGradient>
<linearGradient id="paint13_linear_353_556" x1="458.335" y1="191.153" x2="426.555" y2="187.974" gradientUnits="userSpaceOnUse">
<stop stop-color="#05060A"/>
<stop offset="1" stop-color="#33336B"/>
</linearGradient>
<linearGradient id="paint14_linear_353_556" x1="338.606" y1="258.383" x2="292.761" y2="253.796" gradientUnits="userSpaceOnUse">
<stop stop-color="#34396A"/>
<stop offset="1" stop-color="#16162D"/>
</linearGradient>
<linearGradient id="paint15_linear_353_556" x1="259.184" y1="171.255" x2="227.404" y2="168.076" gradientUnits="userSpaceOnUse">
<stop stop-color="#282C52"/>
<stop offset="1" stop-color="#05050A"/>
</linearGradient>
<linearGradient id="paint16_linear_353_556" x1="6.03931" y1="106.443" x2="208.475" y2="106.443" gradientUnits="userSpaceOnUse">
<stop stop-color="#B4E20E"/>
<stop offset="1" stop-color="#FFD654"/>
</linearGradient>
<linearGradient id="paint17_linear_353_556" x1="262.982" y1="281.55" x2="150.447" y2="272.807" gradientUnits="userSpaceOnUse">
<stop stop-color="#FF7B30"/>
<stop offset="1" stop-color="#FDE932"/>
</linearGradient>
<clipPath id="clip0_353_556">
<rect width="570" height="576" fill="white" transform="matrix(-1 0 0 1 570 0)"/>
</clipPath>
</defs>
</svg>
