<svg width="25" height="25" viewBox="0 0 25 25" fill="none" xmlns="http://www.w3.org/2000/svg">
<path d="M18.028 1H7.972C3.604 1 1 3.604 1 7.972V18.016C1 22.396 3.604 25 7.972 25H18.016C22.384 25 24.988 22.396 24.988 18.028V7.972C25 3.604 22.396 1 18.028 1ZM18.736 10.24L11.932 17.044C11.764 17.212 11.536 17.308 11.296 17.308C11.056 17.308 10.828 17.212 10.66 17.044L7.264 13.648C6.916 13.3 6.916 12.724 7.264 12.376C7.612 12.028 8.188 12.028 8.536 12.376L11.296 15.136L17.464 8.968C17.812 8.62 18.388 8.62 18.736 8.968C19.084 9.316 19.084 9.88 18.736 10.24Z" fill="black"/>
</svg>
