<svg width="97" height="97" viewBox="0 0 97 97" fill="none" xmlns="http://www.w3.org/2000/svg">
<g filter="url(#filter0_d_288_106)">
<rect width="95" height="95" rx="14" fill="#99CC01"/>
<rect x="1.5" y="1.5" width="92" height="92" rx="12.5" stroke="black" stroke-width="3"/>
</g>
<g opacity="0.8">
<path d="M39.6797 53.8246C39.6797 57.0496 42.1547 59.6496 45.2297 59.6496H51.5047C54.1797 59.6496 56.3547 57.3746 56.3547 54.5746C56.3547 51.5246 55.0297 50.4496 53.0547 49.7496L42.9797 46.2496C41.0047 45.5496 39.6797 44.4746 39.6797 41.4246C39.6797 38.6246 41.8547 36.3496 44.5297 36.3496H50.8047C53.8797 36.3496 56.3547 38.9496 56.3547 42.1746" stroke="black" stroke-width="3" stroke-linecap="round" stroke-linejoin="round"/>
<path d="M48 33V63" stroke="black" stroke-width="3" stroke-linecap="round" stroke-linejoin="round"/>
</g>
<path d="M55.5 73H40.5C28 73 23 68 23 55.5V40.5C23 28 28 23 40.5 23H55.5C68 23 73 28 73 40.5V55.5C73 68 68 73 55.5 73Z" stroke="black" stroke-width="3" stroke-linecap="round" stroke-linejoin="round"/>
<defs>
<filter id="filter0_d_288_106" x="0" y="0" width="97" height="97" filterUnits="userSpaceOnUse" color-interpolation-filters="sRGB">
<feFlood flood-opacity="0" result="BackgroundImageFix"/>
<feColorMatrix in="SourceAlpha" type="matrix" values="0 0 0 0 0 0 0 0 0 0 0 0 0 0 0 0 0 0 127 0" result="hardAlpha"/>
<feOffset dx="2" dy="2"/>
<feComposite in2="hardAlpha" operator="out"/>
<feColorMatrix type="matrix" values="0 0 0 0 0 0 0 0 0 0 0 0 0 0 0 0 0 0 1 0"/>
<feBlend mode="normal" in2="BackgroundImageFix" result="effect1_dropShadow_288_106"/>
<feBlend mode="normal" in="SourceGraphic" in2="effect1_dropShadow_288_106" result="shape"/>
</filter>
</defs>
</svg>
