<svg width="82" height="82" viewBox="0 0 82 82" fill="none" xmlns="http://www.w3.org/2000/svg">
<g filter="url(#filter0_d_288_148)">
<rect width="80" height="80" rx="14" fill="#FD3543"/>
<rect x="1.5" y="1.5" width="77" height="77" rx="12.5" stroke="black" stroke-width="3"/>
</g>
<g filter="url(#filter1_d_288_148)">
<path d="M41.9582 58C41.5982 58 41.2742 57.874 40.9862 57.622C40.7342 57.37 40.6082 57.046 40.6082 56.65V30.946L33.2102 36.616C32.8862 36.868 32.5442 36.958 32.1842 36.886C31.8602 36.814 31.5722 36.616 31.3202 36.292L28.1342 32.134C27.9182 31.81 27.8282 31.468 27.8642 31.108C27.9362 30.712 28.1522 30.406 28.5122 30.19L40.9322 20.578C41.1482 20.434 41.3462 20.344 41.5262 20.308C41.7422 20.236 41.9762 20.2 42.2282 20.2H48.9782C49.3382 20.2 49.6442 20.326 49.8962 20.578C50.1842 20.83 50.3282 21.154 50.3282 21.55V56.65C50.3282 57.046 50.1842 57.37 49.8962 57.622C49.6442 57.874 49.3382 58 48.9782 58H41.9582Z" fill="#FFECCF"/>
<path d="M40.9862 57.622L39.9255 58.6827L39.9608 58.718L39.9984 58.7509L40.9862 57.622ZM40.6082 30.946H42.1082V27.9065L39.6957 29.7554L40.6082 30.946ZM33.2102 36.616L32.2977 35.4254L32.2892 35.432L33.2102 36.616ZM32.1842 36.886L31.8588 38.3503L31.8743 38.3537L31.89 38.3569L32.1842 36.886ZM31.3202 36.292L30.1295 37.2043L30.1361 37.2129L31.3202 36.292ZM28.1342 32.134L26.8861 32.966L26.9135 33.0071L26.9435 33.0463L28.1342 32.134ZM27.8642 31.108L26.3883 30.8397L26.3776 30.8989L26.3716 30.9587L27.8642 31.108ZM28.5122 30.19L29.2839 31.4762L29.36 31.4306L29.4302 31.3762L28.5122 30.19ZM40.9322 20.578L40.1001 19.3299L40.056 19.3593L40.0141 19.3918L40.9322 20.578ZM41.5262 20.308L41.8203 21.7789L41.9119 21.7606L42.0005 21.731L41.5262 20.308ZM49.8962 20.578L48.8355 21.6387L48.8708 21.674L48.9084 21.7069L49.8962 20.578ZM49.8962 57.622L48.9084 56.4931L48.8708 56.526L48.8355 56.5613L49.8962 57.622ZM41.9582 56.5C41.9561 56.5 41.9594 56.4999 41.9666 56.5012C41.974 56.5025 41.9818 56.5048 41.9888 56.5075C41.9958 56.5102 41.9987 56.5121 41.9971 56.5112C41.9954 56.5101 41.9875 56.5051 41.9739 56.4931L39.9984 58.7509C40.5411 59.2257 41.2107 59.5 41.9582 59.5V56.5ZM42.0468 56.5613C42.0537 56.5683 42.064 56.58 42.0748 56.5965C42.0858 56.6131 42.0944 56.6303 42.1007 56.6463C42.1138 56.68 42.1082 56.6877 42.1082 56.65H39.1082C39.1082 57.3954 39.3597 58.1169 39.9255 58.6827L42.0468 56.5613ZM42.1082 56.65V30.946H39.1082V56.65H42.1082ZM39.6957 29.7554L32.2977 35.4254L34.1226 37.8065L41.5206 32.1365L39.6957 29.7554ZM32.2892 35.432C32.2617 35.4534 32.2751 35.436 32.3289 35.4219C32.3548 35.4151 32.3833 35.4109 32.4123 35.4101C32.4411 35.4094 32.4638 35.4122 32.4783 35.4151L31.89 38.3569C32.7309 38.5251 33.5085 38.2843 34.1311 37.8L32.2892 35.432ZM32.5095 35.4217C32.5254 35.4252 32.5404 35.4303 32.5534 35.436C32.5661 35.4416 32.5734 35.4464 32.5749 35.4474C32.5778 35.4494 32.5517 35.4322 32.5042 35.3711L30.1361 37.2129C30.5501 37.7452 31.1192 38.1859 31.8588 38.3503L32.5095 35.4217ZM32.5108 35.3797L29.3248 31.2217L26.9435 33.0463L30.1295 37.2043L32.5108 35.3797ZM29.3822 31.3019C29.3692 31.2824 29.3622 31.2688 29.3588 31.2614C29.3554 31.2541 29.3549 31.2514 29.3553 31.2528C29.3556 31.2542 29.3561 31.2568 29.3564 31.2596C29.3566 31.2623 29.3562 31.2618 29.3567 31.2573L26.3716 30.9587C26.2983 31.6916 26.4932 32.3768 26.8861 32.966L29.3822 31.3019ZM29.34 31.3763C29.3403 31.3742 29.339 31.3823 29.3329 31.3972C29.3267 31.4125 29.3175 31.4297 29.3056 31.4465C29.2938 31.4633 29.2829 31.4745 29.2764 31.4804C29.2703 31.4859 29.2713 31.4838 29.2839 31.4762L27.7404 28.9038C27.0283 29.331 26.5413 29.9984 26.3883 30.8397L29.34 31.3763ZM29.4302 31.3762L41.8502 21.7642L40.0141 19.3918L27.5941 29.0038L29.4302 31.3762ZM41.7642 21.8261C41.8175 21.7906 41.8503 21.774 41.8634 21.768C41.8765 21.7621 41.8612 21.7707 41.8203 21.7789L41.232 18.8371C40.7979 18.924 40.4166 19.1189 40.1001 19.3299L41.7642 21.8261ZM42.0005 21.731C42.0481 21.7151 42.1203 21.7 42.2282 21.7V18.7C41.832 18.7 41.4362 18.7569 41.0518 18.885L42.0005 21.731ZM42.2282 21.7H48.9782V18.7H42.2282V21.7ZM48.9782 21.7C48.9796 21.7 48.9501 21.6994 48.9065 21.6815C48.8627 21.6635 48.8386 21.6418 48.8355 21.6387L50.9568 19.5173C50.4203 18.9808 49.7314 18.7 48.9782 18.7V21.7ZM48.9084 21.7069C48.9017 21.701 48.8727 21.6716 48.8494 21.6192C48.8267 21.5681 48.8282 21.5373 48.8282 21.55H51.8282C51.8282 20.7386 51.5101 19.9971 50.8839 19.4491L48.9084 21.7069ZM48.8282 21.55V56.65H51.8282V21.55H48.8282ZM48.8282 56.65C48.8282 56.6627 48.8267 56.6319 48.8494 56.5808C48.8727 56.5284 48.9017 56.499 48.9084 56.4931L50.8839 58.7509C51.5101 58.2029 51.8282 57.4614 51.8282 56.65H48.8282ZM48.8355 56.5613C48.8386 56.5582 48.8627 56.5365 48.9065 56.5185C48.9501 56.5006 48.9796 56.5 48.9782 56.5V59.5C49.7314 59.5 50.4203 59.2192 50.9568 58.6827L48.8355 56.5613ZM48.9782 56.5H41.9582V59.5H48.9782V56.5Z" fill="black"/>
</g>
<defs>
<filter id="filter0_d_288_148" x="0" y="0" width="82" height="82" filterUnits="userSpaceOnUse" color-interpolation-filters="sRGB">
<feFlood flood-opacity="0" result="BackgroundImageFix"/>
<feColorMatrix in="SourceAlpha" type="matrix" values="0 0 0 0 0 0 0 0 0 0 0 0 0 0 0 0 0 0 127 0" result="hardAlpha"/>
<feOffset dx="2" dy="2"/>
<feComposite in2="hardAlpha" operator="out"/>
<feColorMatrix type="matrix" values="0 0 0 0 0 0 0 0 0 0 0 0 0 0 0 0 0 0 1 0"/>
<feBlend mode="normal" in2="BackgroundImageFix" result="effect1_dropShadow_288_148"/>
<feBlend mode="normal" in="SourceGraphic" in2="effect1_dropShadow_288_148" result="shape"/>
</filter>
<filter id="filter1_d_288_148" x="27.8105" y="20.2" width="24.5176" height="39.8" filterUnits="userSpaceOnUse" color-interpolation-filters="sRGB">
<feFlood flood-opacity="0" result="BackgroundImageFix"/>
<feColorMatrix in="SourceAlpha" type="matrix" values="0 0 0 0 0 0 0 0 0 0 0 0 0 0 0 0 0 0 127 0" result="hardAlpha"/>
<feOffset dx="2" dy="2"/>
<feComposite in2="hardAlpha" operator="out"/>
<feColorMatrix type="matrix" values="0 0 0 0 0 0 0 0 0 0 0 0 0 0 0 0 0 0 1 0"/>
<feBlend mode="normal" in2="BackgroundImageFix" result="effect1_dropShadow_288_148"/>
<feBlend mode="normal" in="SourceGraphic" in2="effect1_dropShadow_288_148" result="shape"/>
</filter>
</defs>
</svg>
