<svg width="97" height="97" viewBox="0 0 97 97" fill="none" xmlns="http://www.w3.org/2000/svg">
<g filter="url(#filter0_d_92_96)">
<rect width="95" height="95" rx="14" fill="#FDA032"/>
<rect x="1.5" y="1.5" width="92" height="92" rx="12.5" stroke="black" stroke-width="3"/>
</g>
<path d="M75.6717 45.0457L75.6719 45.0496C75.8632 49.3902 75.0308 53.7141 73.2428 57.6691L73.2402 57.6749C71.1207 62.4169 67.7286 66.4712 63.4446 69.3844C59.1607 72.2976 54.154 73.9549 48.985 74.1712L48.9817 74.1714C44.6627 74.3618 40.3594 73.525 36.4221 71.7289C36.0997 71.5819 35.7357 71.5537 35.3946 71.6493L21.2513 75.6152C20.8902 75.7165 20.5503 75.3988 20.6269 75.0316L23.6028 60.7695C23.6764 60.4166 23.6205 60.0491 23.4454 59.7341C21.3361 55.9407 20.1486 51.7005 19.9799 47.3591L19.9797 47.3558C19.7663 42.1609 20.9974 37.0099 23.5344 32.4797C26.0714 27.9497 29.8139 24.2197 34.3421 21.7069L34.3477 21.7038C38.1227 19.5879 42.342 18.3977 46.6619 18.2299L46.6658 18.2297L48.3499 18.1599C55.1765 18.2649 61.7284 20.8896 66.7553 25.5359C71.7825 30.1824 74.9318 36.5251 75.6016 43.3539L75.6717 45.0457Z" stroke="black" stroke-width="3" stroke-linecap="round" stroke-linejoin="round"/>
<path d="M32.6567 53C32.5101 53 32.3834 52.9533 32.2767 52.86C32.1834 52.7667 32.1367 52.6467 32.1367 52.5V51.08C32.1367 50.9867 32.1634 50.8467 32.2167 50.66C32.2701 50.46 32.4101 50.2733 32.6367 50.1L34.7167 48.06C35.7834 47.2467 36.6567 46.56 37.3367 46C38.0301 45.4267 38.5434 44.92 38.8767 44.48C39.2101 44.04 39.3767 43.6267 39.3767 43.24C39.3767 42.7867 39.2567 42.4133 39.0167 42.12C38.7901 41.8133 38.3901 41.66 37.8167 41.66C37.4301 41.66 37.1034 41.7467 36.8367 41.92C36.5834 42.08 36.3901 42.2933 36.2567 42.56C36.1234 42.8267 36.0301 43.1 35.9767 43.38C35.9234 43.5533 35.8301 43.6733 35.6967 43.74C35.5767 43.8067 35.4434 43.84 35.2967 43.84H32.7967C32.6767 43.84 32.5767 43.8 32.4967 43.72C32.4167 43.64 32.3767 43.54 32.3767 43.42C32.3901 42.78 32.5234 42.18 32.7767 41.62C33.0434 41.06 33.4101 40.5667 33.8767 40.14C34.3567 39.7 34.9234 39.36 35.5767 39.12C36.2434 38.88 36.9901 38.76 37.8167 38.76C38.9501 38.76 39.9101 38.94 40.6967 39.3C41.4967 39.66 42.1034 40.1667 42.5167 40.82C42.9301 41.46 43.1367 42.2133 43.1367 43.08C43.1367 43.7333 42.9901 44.3467 42.6967 44.92C42.4167 45.48 42.0101 46.02 41.4767 46.54C40.9567 47.0467 40.3367 47.5733 39.6167 48.12L37.7767 49.98H42.9167C43.0634 49.98 43.1834 50.0267 43.2767 50.12C43.3834 50.2133 43.4367 50.3333 43.4367 50.48V52.5C43.4367 52.6467 43.3834 52.7667 43.2767 52.86C43.1834 52.9533 43.0634 53 42.9167 53H32.6567Z" fill="black"/>
<path d="M52.0264 53C51.8931 53 51.7731 52.9533 51.6664 52.86C51.5731 52.7667 51.5264 52.6467 51.5264 52.5V50.24H45.3064C45.1731 50.24 45.0531 50.1933 44.9464 50.1C44.8531 50.0067 44.8064 49.8867 44.8064 49.74V47.84C44.8064 47.72 44.8264 47.6133 44.8664 47.52C44.9197 47.4133 44.9731 47.3133 45.0264 47.22L50.8464 39.34C51.0197 39.1133 51.2664 39 51.5864 39H54.4864C54.6331 39 54.7531 39.0467 54.8464 39.14C54.9531 39.2333 55.0064 39.3533 55.0064 39.5V47.26H56.7664C56.9264 47.26 57.0531 47.3133 57.1464 47.42C57.2397 47.5133 57.2864 47.6267 57.2864 47.76V49.74C57.2864 49.8867 57.2331 50.0067 57.1264 50.1C57.0331 50.1933 56.9197 50.24 56.7864 50.24H55.0064V52.5C55.0064 52.6467 54.9531 52.7667 54.8464 52.86C54.7531 52.9533 54.6331 53 54.4864 53H52.0264ZM48.2464 47.4H51.6064V42.68L48.2464 47.4Z" fill="black"/>
<path d="M58.8872 53C58.7992 53 58.7272 52.972 58.6712 52.916C58.6152 52.86 58.5872 52.788 58.5872 52.7V44.78C58.5872 44.692 58.6152 44.62 58.6712 44.564C58.7272 44.508 58.7992 44.48 58.8872 44.48H60.4232C60.5112 44.48 60.5832 44.508 60.6392 44.564C60.6952 44.62 60.7232 44.692 60.7232 44.78V47.456C60.9392 47.208 61.2032 47.012 61.5152 46.868C61.8352 46.716 62.2032 46.64 62.6192 46.64C63.0832 46.64 63.4952 46.744 63.8552 46.952C64.2232 47.16 64.5112 47.468 64.7192 47.876C64.9272 48.276 65.0312 48.768 65.0312 49.352V52.7C65.0312 52.788 65.0032 52.86 64.9472 52.916C64.8912 52.972 64.8192 53 64.7312 53H63.1832C63.1032 53 63.0312 52.972 62.9672 52.916C62.9112 52.86 62.8832 52.788 62.8832 52.7V49.424C62.8832 49.048 62.7912 48.76 62.6072 48.56C62.4312 48.352 62.1672 48.248 61.8152 48.248C61.4872 48.248 61.2232 48.352 61.0232 48.56C60.8232 48.76 60.7232 49.048 60.7232 49.424V52.7C60.7232 52.788 60.6952 52.86 60.6392 52.916C60.5832 52.972 60.5112 53 60.4232 53H58.8872Z" fill="black"/>
<defs>
<filter id="filter0_d_92_96" x="0" y="0" width="97" height="97" filterUnits="userSpaceOnUse" color-interpolation-filters="sRGB">
<feFlood flood-opacity="0" result="BackgroundImageFix"/>
<feColorMatrix in="SourceAlpha" type="matrix" values="0 0 0 0 0 0 0 0 0 0 0 0 0 0 0 0 0 0 127 0" result="hardAlpha"/>
<feOffset dx="2" dy="2"/>
<feComposite in2="hardAlpha" operator="out"/>
<feColorMatrix type="matrix" values="0 0 0 0 0 0 0 0 0 0 0 0 0 0 0 0 0 0 1 0"/>
<feBlend mode="normal" in2="BackgroundImageFix" result="effect1_dropShadow_92_96"/>
<feBlend mode="normal" in="SourceGraphic" in2="effect1_dropShadow_92_96" result="shape"/>
</filter>
</defs>
</svg>
