<svg width="82" height="82" viewBox="0 0 82 82" fill="none" xmlns="http://www.w3.org/2000/svg">
<g filter="url(#filter0_d_288_152)">
<rect width="80" height="80" rx="14" fill="#FF7B30"/>
<rect x="1.5" y="1.5" width="77" height="77" rx="12.5" stroke="black" stroke-width="3"/>
</g>
<g filter="url(#filter1_d_288_152)">
<path d="M40.1732 58.54C37.3652 58.54 34.9712 58.216 32.9912 57.568C31.0112 56.884 29.3912 56.02 28.1312 54.976C26.8712 53.896 25.9352 52.762 25.3232 51.574C24.7112 50.35 24.3872 49.18 24.3512 48.064C24.3512 47.74 24.4592 47.47 24.6752 47.254C24.9272 47.038 25.2152 46.93 25.5392 46.93H32.5592C32.9912 46.93 33.3332 47.02 33.5852 47.2C33.8372 47.344 34.0712 47.596 34.2872 47.956C34.5752 48.64 34.9892 49.198 35.5292 49.63C36.1052 50.062 36.7892 50.368 37.5812 50.548C38.3732 50.692 39.2372 50.764 40.1732 50.764C42.0092 50.764 43.4312 50.35 44.4392 49.522C45.4832 48.658 46.0052 47.488 46.0052 46.012C46.0052 44.464 45.5192 43.366 44.5472 42.718C43.5752 42.034 42.1892 41.692 40.3892 41.692H34.3952C33.9992 41.692 33.6752 41.566 33.4232 41.314C33.1712 41.062 33.0452 40.738 33.0452 40.342V37.318C33.0452 36.886 33.1352 36.508 33.3152 36.184C33.4952 35.86 33.6932 35.626 33.9092 35.482L42.7652 27.976H27.7532C27.3932 27.976 27.0692 27.85 26.7812 27.598C26.5292 27.346 26.4032 27.022 26.4032 26.626V21.55C26.4032 21.154 26.5292 20.83 26.7812 20.578C27.0692 20.326 27.3932 20.2 27.7532 20.2H52.5932C52.9892 20.2 53.3132 20.326 53.5652 20.578C53.8532 20.83 53.9972 21.154 53.9972 21.55V26.14C53.9972 26.536 53.9072 26.896 53.7272 27.22C53.5472 27.508 53.3492 27.742 53.1332 27.922L44.9252 35.536L45.3032 35.644C47.3552 35.896 49.1912 36.454 50.8112 37.318C52.4312 38.146 53.7092 39.316 54.6452 40.828C55.5812 42.34 56.0492 44.266 56.0492 46.606C56.0492 49.054 55.3472 51.178 53.9432 52.978C52.5752 54.742 50.7032 56.11 48.3272 57.082C45.9512 58.054 43.2332 58.54 40.1732 58.54Z" fill="#FFECCF"/>
<path d="M32.9912 57.568L32.5014 58.9858L32.513 58.9898L32.5246 58.9936L32.9912 57.568ZM28.1312 54.976L27.155 56.1149L27.1645 56.123L27.1742 56.131L28.1312 54.976ZM25.3232 51.574L23.9816 52.2448L23.9856 52.2529L23.9897 52.2609L25.3232 51.574ZM24.3512 48.064H22.8512V48.0882L22.852 48.1124L24.3512 48.064ZM24.6752 47.254L23.699 46.1151L23.6553 46.1526L23.6145 46.1933L24.6752 47.254ZM33.5852 47.2L32.7133 48.4206L32.7751 48.4647L32.841 48.5024L33.5852 47.2ZM34.2872 47.956L35.6697 47.3739L35.6283 47.2757L35.5734 47.1843L34.2872 47.956ZM35.5292 49.63L34.5922 50.8013L34.6105 50.8159L34.6292 50.83L35.5292 49.63ZM37.5812 50.548L37.2488 52.0107L37.2807 52.018L37.3129 52.0238L37.5812 50.548ZM44.4392 49.522L45.3913 50.6811L45.3956 50.6776L44.4392 49.522ZM44.5472 42.718L43.684 43.9447L43.6994 43.9556L43.7152 43.9661L44.5472 42.718ZM33.4232 41.314L32.3625 42.3747L32.3625 42.3747L33.4232 41.314ZM33.3152 36.184L34.6264 36.9125L34.6264 36.9125L33.3152 36.184ZM33.9092 35.482L34.7413 36.7301L34.8131 36.6821L34.8791 36.6263L33.9092 35.482ZM42.7652 27.976L43.7351 29.1203L46.8549 26.476H42.7652V27.976ZM26.7812 27.598L25.7205 28.6587L25.7559 28.694L25.7934 28.7269L26.7812 27.598ZM26.7812 20.578L25.7934 19.4491L25.7559 19.482L25.7205 19.5173L26.7812 20.578ZM53.5652 20.578L52.5045 21.6387L52.5399 21.674L52.5774 21.7069L53.5652 20.578ZM53.7272 27.22L54.9992 28.015L55.0197 27.9822L55.0384 27.9485L53.7272 27.22ZM53.1332 27.922L52.1729 26.7697L52.1423 26.7952L52.1131 26.8223L53.1332 27.922ZM44.9252 35.536L43.9051 34.4363L41.9532 36.2469L44.5131 36.9783L44.9252 35.536ZM45.3032 35.644L44.8911 37.0863L45.0039 37.1185L45.1204 37.1328L45.3032 35.644ZM50.8112 37.318L50.1053 38.6415L50.1169 38.6477L50.1285 38.6537L50.8112 37.318ZM54.6452 40.828L55.9206 40.0385L55.9206 40.0385L54.6452 40.828ZM53.9432 52.978L52.7604 52.0554L52.7579 52.0588L53.9432 52.978ZM48.3272 57.082L47.7593 55.6937L47.7593 55.6937L48.3272 57.082ZM40.1732 57.04C37.4723 57.04 35.245 56.7273 33.4578 56.1424L32.5246 58.9936C34.6974 59.7047 37.2581 60.04 40.1732 60.04V57.04ZM33.481 56.1502C31.6257 55.5093 30.1767 54.7229 29.0882 53.821L27.1742 56.131C28.6057 57.3171 30.3967 58.2587 32.5014 58.9858L33.481 56.1502ZM29.1074 53.8371C27.9601 52.8538 27.1613 51.8666 26.6567 50.8871L23.9897 52.2609C24.7091 53.6574 25.7822 54.9382 27.155 56.1149L29.1074 53.8371ZM26.6648 50.9032C26.1283 49.8301 25.878 48.8721 25.8504 48.0156L22.852 48.1124C22.8964 49.4879 23.2941 50.8699 23.9816 52.2448L26.6648 50.9032ZM25.8512 48.064C25.8512 48.0711 25.8494 48.1143 25.8249 48.1756C25.7997 48.2387 25.7641 48.2864 25.7359 48.3147L23.6145 46.1933C23.0988 46.709 22.8512 47.369 22.8512 48.064H25.8512ZM25.6514 48.3929C25.6548 48.39 25.6396 48.4032 25.6069 48.4155C25.5736 48.428 25.5474 48.43 25.5392 48.43V45.43C24.8477 45.43 24.2156 45.6723 23.699 46.1151L25.6514 48.3929ZM25.5392 48.43H32.5592V45.43H25.5392V48.43ZM32.5592 48.43C32.6737 48.43 32.7355 48.4422 32.758 48.4481C32.7777 48.4533 32.7549 48.4503 32.7133 48.4206L34.4571 45.9794C33.8679 45.5586 33.1839 45.43 32.5592 45.43V48.43ZM32.841 48.5024C32.8133 48.4866 32.8183 48.483 32.8505 48.5177C32.8832 48.5529 32.9352 48.6182 33.001 48.7277L35.5734 47.1843C35.2805 46.696 34.8823 46.2136 34.3294 45.8976L32.841 48.5024ZM32.9047 48.5381C33.2825 49.4352 33.8427 50.2017 34.5922 50.8013L36.4662 48.4587C36.1357 48.1943 35.8679 47.8448 35.6697 47.3739L32.9047 48.5381ZM34.6292 50.83C35.3942 51.4037 36.2776 51.79 37.2488 52.0107L37.9136 49.0853C37.3008 48.946 36.8162 48.7203 36.4292 48.43L34.6292 50.83ZM37.3129 52.0238C38.2063 52.1862 39.1614 52.264 40.1732 52.264V49.264C39.313 49.264 38.5401 49.1978 37.8495 49.0722L37.3129 52.0238ZM40.1732 52.264C42.2171 52.264 44.0241 51.8042 45.3913 50.6811L43.4871 48.3629C42.8383 48.8958 41.8013 49.264 40.1732 49.264V52.264ZM45.3956 50.6776C46.8173 49.5009 47.5052 47.8896 47.5052 46.012H44.5052C44.5052 47.0864 44.1491 47.8151 43.4828 48.3664L45.3956 50.6776ZM47.5052 46.012C47.5052 44.1436 46.8996 42.4835 45.3793 41.4699L43.7152 43.9661C44.1388 44.2485 44.5052 44.7844 44.5052 46.012H47.5052ZM45.4104 41.4913C44.0862 40.5594 42.3488 40.192 40.3892 40.192V43.192C42.0296 43.192 43.0642 43.5086 43.684 43.9447L45.4104 41.4913ZM40.3892 40.192H34.3952V43.192H40.3892V40.192ZM34.3952 40.192C34.3575 40.192 34.3652 40.1864 34.3989 40.1995C34.4149 40.2057 34.4321 40.2144 34.4487 40.2253C34.4652 40.2361 34.4769 40.2464 34.4839 40.2533L32.3625 42.3747C32.9283 42.9405 33.6498 43.192 34.3952 43.192V40.192ZM34.4839 40.2533C34.4908 40.2603 34.5011 40.272 34.5119 40.2885C34.5228 40.3051 34.5315 40.3223 34.5377 40.3383C34.5508 40.372 34.5452 40.3797 34.5452 40.342H31.5452C31.5452 41.0874 31.7967 41.8089 32.3625 42.3747L34.4839 40.2533ZM34.5452 40.342V37.318H31.5452V40.342H34.5452ZM34.5452 37.318C34.5452 37.0984 34.5893 36.9792 34.6264 36.9125L32.004 35.4555C31.6811 36.0368 31.5452 36.6736 31.5452 37.318H34.5452ZM34.6264 36.9125C34.6785 36.8188 34.7193 36.7633 34.7438 36.7344C34.7679 36.7059 34.769 36.7116 34.7413 36.7301L33.0771 34.2339C32.5957 34.5549 32.2536 35.0062 32.004 35.4555L34.6264 36.9125ZM34.8791 36.6263L43.7351 29.1203L41.7953 26.8317L32.9393 34.3377L34.8791 36.6263ZM42.7652 26.476H27.7532V29.476H42.7652V26.476ZM27.7532 26.476C27.7511 26.476 27.7545 26.4759 27.7617 26.4772C27.769 26.4785 27.7768 26.4808 27.7839 26.4835C27.7908 26.4862 27.7937 26.4881 27.7922 26.4872C27.7905 26.4861 27.7826 26.4811 27.769 26.4691L25.7934 28.7269C26.3361 29.2017 27.0057 29.476 27.7532 29.476V26.476ZM27.8419 26.5373C27.8488 26.5443 27.8591 26.556 27.8699 26.5725C27.8808 26.5891 27.8895 26.6063 27.8957 26.6223C27.9088 26.656 27.9032 26.6637 27.9032 26.626H24.9032C24.9032 27.3714 25.1547 28.0929 25.7205 28.6587L27.8419 26.5373ZM27.9032 26.626V21.55H24.9032V26.626H27.9032ZM27.9032 21.55C27.9032 21.5123 27.9088 21.5199 27.8957 21.5537C27.8895 21.5697 27.8808 21.5869 27.8699 21.6035C27.859 21.62 27.8488 21.6317 27.8419 21.6387L25.7205 19.5173C25.1547 20.0831 24.9032 20.8046 24.9032 21.55H27.9032ZM27.769 21.7069C27.7826 21.6949 27.7905 21.6899 27.7922 21.6888C27.7937 21.6879 27.7908 21.6898 27.7839 21.6925C27.7768 21.6952 27.769 21.6975 27.7617 21.6988C27.7545 21.7001 27.7511 21.7 27.7532 21.7V18.7C27.0057 18.7 26.3361 18.9743 25.7934 19.4491L27.769 21.7069ZM27.7532 21.7H52.5932V18.7H27.7532V21.7ZM52.5932 21.7C52.6309 21.7 52.6232 21.7056 52.5895 21.6925C52.5735 21.6863 52.5563 21.6776 52.5397 21.6667C52.5232 21.6558 52.5115 21.6456 52.5045 21.6387L54.6259 19.5173C54.0601 18.9515 53.3386 18.7 52.5932 18.7V21.7ZM52.5774 21.7069C52.5708 21.701 52.5418 21.6716 52.5185 21.6192C52.4958 21.5681 52.4972 21.5373 52.4972 21.55H55.4972C55.4972 20.7386 55.1792 19.9971 54.553 19.4491L52.5774 21.7069ZM52.4972 21.55V26.14H55.4972V21.55H52.4972ZM52.4972 26.14C52.4972 26.2991 52.4637 26.4056 52.416 26.4915L55.0384 27.9485C55.3507 27.3864 55.4972 26.7729 55.4972 26.14H52.4972ZM52.4552 26.425C52.3426 26.6052 52.2444 26.7101 52.1729 26.7697L54.0935 29.0743C54.454 28.7739 54.7518 28.4108 54.9992 28.015L52.4552 26.425ZM52.1131 26.8223L43.9051 34.4363L45.9453 36.6357L54.1533 29.0217L52.1131 26.8223ZM44.5131 36.9783L44.8911 37.0863L45.7153 34.2017L45.3373 34.0937L44.5131 36.9783ZM45.1204 37.1328C47.0123 37.3652 48.6672 37.8745 50.1053 38.6415L51.5171 35.9945C49.7152 35.0335 47.6981 34.4268 45.486 34.1552L45.1204 37.1328ZM50.1285 38.6537C51.5108 39.3601 52.5813 40.3438 53.3698 41.6175L55.9206 40.0385C54.8371 38.2882 53.3516 36.9319 51.4939 35.9823L50.1285 38.6537ZM53.3698 41.6175C54.1194 42.8285 54.5492 44.4588 54.5492 46.606H57.5492C57.5492 44.0732 57.043 41.8515 55.9206 40.0385L53.3698 41.6175ZM54.5492 46.606C54.5492 48.7456 53.9435 50.5387 52.7604 52.0555L55.126 53.9005C56.7509 51.8173 57.5492 49.3624 57.5492 46.606H54.5492ZM52.7579 52.0588C51.5739 53.5855 49.9289 54.8061 47.7593 55.6937L48.8951 58.4703C51.4775 57.4139 53.5766 55.8985 55.1285 53.8972L52.7579 52.0588ZM47.7593 55.6937C45.5946 56.5792 43.0751 57.04 40.1732 57.04V60.04C43.3913 60.04 46.3078 59.5288 48.8951 58.4703L47.7593 55.6937Z" fill="black"/>
</g>
<defs>
<filter id="filter0_d_288_152" x="0" y="0" width="82" height="82" filterUnits="userSpaceOnUse" color-interpolation-filters="sRGB">
<feFlood flood-opacity="0" result="BackgroundImageFix"/>
<feColorMatrix in="SourceAlpha" type="matrix" values="0 0 0 0 0 0 0 0 0 0 0 0 0 0 0 0 0 0 127 0" result="hardAlpha"/>
<feOffset dx="2" dy="2"/>
<feComposite in2="hardAlpha" operator="out"/>
<feColorMatrix type="matrix" values="0 0 0 0 0 0 0 0 0 0 0 0 0 0 0 0 0 0 1 0"/>
<feBlend mode="normal" in2="BackgroundImageFix" result="effect1_dropShadow_288_152"/>
<feBlend mode="normal" in="SourceGraphic" in2="effect1_dropShadow_288_152" result="shape"/>
</filter>
<filter id="filter1_d_288_152" x="24.3516" y="20.2" width="33.6973" height="40.3401" filterUnits="userSpaceOnUse" color-interpolation-filters="sRGB">
<feFlood flood-opacity="0" result="BackgroundImageFix"/>
<feColorMatrix in="SourceAlpha" type="matrix" values="0 0 0 0 0 0 0 0 0 0 0 0 0 0 0 0 0 0 127 0" result="hardAlpha"/>
<feOffset dx="2" dy="2"/>
<feComposite in2="hardAlpha" operator="out"/>
<feColorMatrix type="matrix" values="0 0 0 0 0 0 0 0 0 0 0 0 0 0 0 0 0 0 1 0"/>
<feBlend mode="normal" in2="BackgroundImageFix" result="effect1_dropShadow_288_152"/>
<feBlend mode="normal" in="SourceGraphic" in2="effect1_dropShadow_288_152" result="shape"/>
</filter>
</defs>
</svg>
