<svg width="82" height="82" viewBox="0 0 82 82" fill="none" xmlns="http://www.w3.org/2000/svg">
<g filter="url(#filter0_d_288_149)">
<rect width="80" height="80" rx="14" fill="#FDA032"/>
<rect x="1.5" y="1.5" width="77" height="77" rx="12.5" stroke="black" stroke-width="3"/>
</g>
<g filter="url(#filter1_d_288_149)">
<path d="M26.4785 58C26.0825 58 25.7405 57.874 25.4525 57.622C25.2005 57.37 25.0745 57.046 25.0745 56.65V52.816C25.0745 52.564 25.1465 52.186 25.2905 51.682C25.4345 51.142 25.8125 50.638 26.4245 50.17L32.0405 44.662C34.9205 42.466 37.2785 40.612 39.1145 39.1C40.9865 37.552 42.3725 36.184 43.2725 34.996C44.1725 33.808 44.6225 32.692 44.6225 31.648C44.6225 30.424 44.2985 29.416 43.6505 28.624C43.0385 27.796 41.9585 27.382 40.4105 27.382C39.3665 27.382 38.4845 27.616 37.7645 28.084C37.0805 28.516 36.5585 29.092 36.1985 29.812C35.8385 30.532 35.5865 31.27 35.4425 32.026C35.2985 32.494 35.0465 32.818 34.6865 32.998C34.3625 33.178 34.0025 33.268 33.6065 33.268H26.8565C26.5325 33.268 26.2625 33.16 26.0465 32.944C25.8305 32.728 25.7225 32.458 25.7225 32.134C25.7585 30.406 26.1185 28.786 26.8025 27.274C27.5225 25.762 28.5125 24.43 29.7725 23.278C31.0685 22.09 32.5985 21.172 34.3625 20.524C36.1625 19.876 38.1785 19.552 40.4105 19.552C43.4705 19.552 46.0625 20.038 48.1865 21.01C50.3465 21.982 51.9845 23.35 53.1005 25.114C54.2165 26.842 54.7745 28.876 54.7745 31.216C54.7745 32.98 54.3785 34.636 53.5865 36.184C52.8305 37.696 51.7325 39.154 50.2925 40.558C48.8885 41.926 47.2145 43.348 45.2705 44.824L40.3025 49.846H54.1805C54.5765 49.846 54.9005 49.972 55.1525 50.224C55.4405 50.476 55.5845 50.8 55.5845 51.196V56.65C55.5845 57.046 55.4405 57.37 55.1525 57.622C54.9005 57.874 54.5765 58 54.1805 58H26.4785Z" fill="#FFECCF"/>
<path d="M25.4525 57.622L24.3918 58.6827L24.4272 58.718L24.4647 58.7509L25.4525 57.622ZM25.2905 51.682L26.7328 52.0941L26.7364 52.0813L26.7399 52.0685L25.2905 51.682ZM26.4245 50.17L27.3357 51.3615L27.409 51.3055L27.4748 51.2409L26.4245 50.17ZM32.0405 44.662L31.131 43.4692L31.0568 43.5258L30.9902 43.5911L32.0405 44.662ZM39.1145 39.1L40.0681 40.2579L40.0704 40.256L39.1145 39.1ZM43.2725 34.996L42.0769 34.0902L42.0769 34.0902L43.2725 34.996ZM43.6505 28.624L42.4442 29.5156L42.4662 29.5453L42.4896 29.5739L43.6505 28.624ZM37.7645 28.084L38.5655 29.3522L38.5738 29.347L38.582 29.3417L37.7645 28.084ZM36.1985 29.812L37.5401 30.4828L37.5401 30.4828L36.1985 29.812ZM35.4425 32.026L36.8762 32.4671L36.9005 32.388L36.916 32.3067L35.4425 32.026ZM34.6865 32.998L34.0157 31.6564L33.9865 31.6709L33.958 31.6868L34.6865 32.998ZM26.0465 32.944L24.9858 34.0047L24.9858 34.0047L26.0465 32.944ZM25.7225 32.134L24.2228 32.1028L24.2225 32.1184V32.134H25.7225ZM26.8025 27.274L25.4482 26.6291L25.4419 26.6424L25.4358 26.6557L26.8025 27.274ZM29.7725 23.278L30.7847 24.385L30.7861 24.3837L29.7725 23.278ZM34.3625 20.524L33.8544 19.1126L33.8453 19.116L34.3625 20.524ZM48.1865 21.01L47.5623 22.374L47.571 22.3779L48.1865 21.01ZM53.1005 25.114L51.8328 25.916L51.8404 25.9278L53.1005 25.114ZM53.5865 36.184L52.2511 35.5008L52.2449 35.5132L53.5865 36.184ZM50.2925 40.558L51.3393 41.6323L51.3397 41.632L50.2925 40.558ZM45.2705 44.824L44.3634 43.6293L44.2788 43.6936L44.2041 43.7691L45.2705 44.824ZM40.3025 49.846L39.2361 48.7911L36.7087 51.346H40.3025V49.846ZM55.1525 50.224L54.0918 51.2847L54.1272 51.32L54.1647 51.3529L55.1525 50.224ZM55.1525 57.622L54.1647 56.4931L54.1272 56.526L54.0918 56.5613L55.1525 57.622ZM26.4785 56.5C26.4593 56.5 26.4483 56.4985 26.4441 56.4978C26.4401 56.4971 26.4404 56.4968 26.4436 56.498C26.4468 56.4992 26.4493 56.5005 26.4504 56.5011C26.4513 56.5017 26.4479 56.4998 26.4403 56.4931L24.4647 58.7509C25.0364 59.2511 25.733 59.5 26.4785 59.5V56.5ZM26.5132 56.5613C26.5201 56.5683 26.5304 56.58 26.5412 56.5965C26.5521 56.6131 26.5608 56.6303 26.567 56.6463C26.5801 56.68 26.5745 56.6877 26.5745 56.65H23.5745C23.5745 57.3954 23.826 58.1169 24.3918 58.6827L26.5132 56.5613ZM26.5745 56.65V52.816H23.5745V56.65H26.5745ZM26.5745 52.816C26.5745 52.8196 26.5755 52.7635 26.602 52.6242C26.6272 52.492 26.6691 52.3171 26.7328 52.0941L23.8482 51.2699C23.6979 51.796 23.5745 52.3429 23.5745 52.816H26.5745ZM26.7399 52.0685C26.7712 51.9508 26.8889 51.7032 27.3357 51.3615L25.5133 48.9785C24.7361 49.5728 24.0978 50.3332 23.8412 51.2955L26.7399 52.0685ZM27.4748 51.2409L33.0908 45.7329L30.9902 43.5911L25.3742 49.0991L27.4748 51.2409ZM32.95 45.8548C35.8381 43.6526 38.2122 41.7862 40.0681 40.2579L38.1609 37.9421C36.3448 39.4378 34.0029 41.2794 31.131 43.4692L32.95 45.8548ZM40.0704 40.256C41.9833 38.6741 43.4684 37.2215 44.4681 35.9018L42.0769 34.0902C41.2766 35.1465 39.9897 36.4299 38.1586 37.944L40.0704 40.256ZM44.4681 35.9018C45.4837 34.5612 46.1225 33.1327 46.1225 31.648H43.1225C43.1225 32.2513 42.8613 33.0548 42.0769 34.0902L44.4681 35.9018ZM46.1225 31.648C46.1225 30.1484 45.7196 28.7842 44.8114 27.6741L42.4896 29.5739C42.8774 30.0478 43.1225 30.6996 43.1225 31.648H46.1225ZM44.8568 27.7324C43.8411 26.3582 42.1856 25.882 40.4105 25.882V28.882C41.7314 28.882 42.236 29.2338 42.4442 29.5156L44.8568 27.7324ZM40.4105 25.882C39.1394 25.882 37.9583 26.169 36.947 26.8263L38.582 29.3417C39.0107 29.063 39.5936 28.882 40.4105 28.882V25.882ZM36.9635 26.8158C36.0494 27.3931 35.3399 28.1752 34.8569 29.1412L37.5401 30.4828C37.7771 30.0088 38.1116 29.6389 38.5655 29.3522L36.9635 26.8158ZM34.8569 29.1412C34.438 29.9789 34.14 30.8477 33.969 31.7453L36.916 32.3067C37.033 31.6923 37.239 31.0851 37.5401 30.4828L34.8569 29.1412ZM34.0088 31.5849C33.9802 31.6778 33.9566 31.7053 33.9615 31.6991C33.9639 31.6959 33.9709 31.6878 33.9827 31.6781C33.9946 31.6683 34.0064 31.661 34.0157 31.6564L35.3573 34.3396C36.1613 33.9377 36.6396 33.2358 36.8762 32.4671L34.0088 31.5849ZM33.958 31.6868C33.8721 31.7345 33.7656 31.768 33.6065 31.768V34.768C34.2394 34.768 34.8529 34.6215 35.415 34.3092L33.958 31.6868ZM33.6065 31.768H26.8565V34.768H33.6065V31.768ZM26.8565 31.768C26.8636 31.768 26.9068 31.7698 26.9681 31.7943C27.0312 31.8195 27.0789 31.8551 27.1072 31.8833L24.9858 34.0047C25.5015 34.5204 26.1615 34.768 26.8565 34.768V31.768ZM27.1072 31.8833C27.1354 31.9116 27.171 31.9593 27.1962 32.0224C27.2207 32.0837 27.2225 32.1269 27.2225 32.134H24.2225C24.2225 32.829 24.4702 33.489 24.9858 34.0047L27.1072 31.8833ZM27.2222 32.1652C27.2541 30.6313 27.5722 29.2119 28.1692 27.8923L25.4358 26.6557C24.6648 28.3601 24.2629 30.1807 24.2228 32.1028L27.2222 32.1652ZM28.1568 27.9189C28.792 26.585 29.6646 25.4091 30.7847 24.385L28.7604 22.171C27.3604 23.4509 26.253 24.939 25.4482 26.6291L28.1568 27.9189ZM30.7861 24.3837C31.9282 23.3368 33.2865 22.5173 34.8797 21.932L33.8453 19.116C31.9105 19.8267 30.2088 20.8432 28.7589 22.1723L30.7861 24.3837ZM34.8706 21.9353C36.483 21.3549 38.3234 21.052 40.4105 21.052V18.052C38.0336 18.052 35.8421 18.3971 33.8544 19.1127L34.8706 21.9353ZM40.4105 21.052C43.319 21.052 45.685 21.5148 47.5623 22.374L48.8107 19.646C46.44 18.5612 43.6221 18.052 40.4105 18.052V21.052ZM47.571 22.3779C49.5001 23.246 50.8946 24.4328 51.8329 25.916L54.3681 24.312C53.0744 22.2672 51.1929 20.718 48.8021 19.6421L47.571 22.3779ZM51.8404 25.9278C52.779 27.3811 53.2745 29.1239 53.2745 31.216H56.2745C56.2745 28.6281 55.654 26.3029 54.3606 24.3002L51.8404 25.9278ZM53.2745 31.216C53.2745 32.746 52.9333 34.1674 52.2511 35.5008L54.9219 36.8672C55.8237 35.1046 56.2745 33.214 56.2745 31.216H53.2745ZM52.2449 35.5132C51.5765 36.8499 50.5875 38.1754 49.2454 39.484L51.3397 41.632C52.8775 40.1326 54.0845 38.5421 54.9281 36.8548L52.2449 35.5132ZM49.2457 39.4837C47.8949 40.7998 46.2698 42.1819 44.3634 43.6293L46.1776 46.0187C48.1593 44.5141 49.8821 43.0522 51.3393 41.6323L49.2457 39.4837ZM44.2041 43.7691L39.2361 48.7911L41.3689 50.9009L46.3369 45.8789L44.2041 43.7691ZM40.3025 51.346H54.1805V48.346H40.3025V51.346ZM54.1805 51.346C54.2182 51.346 54.2106 51.3516 54.1768 51.3385C54.1609 51.3323 54.1436 51.3236 54.127 51.3127C54.1105 51.3019 54.0988 51.2916 54.0918 51.2847L56.2132 49.1633C55.6474 48.5975 54.9259 48.346 54.1805 48.346V51.346ZM54.1647 51.3529C54.1581 51.347 54.1291 51.3176 54.1058 51.2652C54.0831 51.2141 54.0845 51.1833 54.0845 51.196H57.0845C57.0845 50.3846 56.7665 49.6431 56.1403 49.0951L54.1647 51.3529ZM54.0845 51.196V56.65H57.0845V51.196H54.0845ZM54.0845 56.65C54.0845 56.6627 54.0831 56.6319 54.1058 56.5808C54.1291 56.5284 54.1581 56.499 54.1647 56.4931L56.1403 58.7509C56.7665 58.2029 57.0845 57.4614 57.0845 56.65H54.0845ZM54.0918 56.5613C54.0988 56.5544 54.1105 56.5441 54.127 56.5333C54.1436 56.5224 54.1609 56.5137 54.1768 56.5075C54.2106 56.4944 54.2182 56.5 54.1805 56.5V59.5C54.9259 59.5 55.6474 59.2485 56.2132 58.6827L54.0918 56.5613ZM54.1805 56.5H26.4785V59.5H54.1805V56.5Z" fill="black"/>
</g>
<defs>
<filter id="filter0_d_288_149" x="0" y="0" width="82" height="82" filterUnits="userSpaceOnUse" color-interpolation-filters="sRGB">
<feFlood flood-opacity="0" result="BackgroundImageFix"/>
<feColorMatrix in="SourceAlpha" type="matrix" values="0 0 0 0 0 0 0 0 0 0 0 0 0 0 0 0 0 0 127 0" result="hardAlpha"/>
<feOffset dx="2" dy="2"/>
<feComposite in2="hardAlpha" operator="out"/>
<feColorMatrix type="matrix" values="0 0 0 0 0 0 0 0 0 0 0 0 0 0 0 0 0 0 1 0"/>
<feBlend mode="normal" in2="BackgroundImageFix" result="effect1_dropShadow_288_149"/>
<feBlend mode="normal" in="SourceGraphic" in2="effect1_dropShadow_288_149" result="shape"/>
</filter>
<filter id="filter1_d_288_149" x="25.0742" y="19.552" width="32.5107" height="40.448" filterUnits="userSpaceOnUse" color-interpolation-filters="sRGB">
<feFlood flood-opacity="0" result="BackgroundImageFix"/>
<feColorMatrix in="SourceAlpha" type="matrix" values="0 0 0 0 0 0 0 0 0 0 0 0 0 0 0 0 0 0 127 0" result="hardAlpha"/>
<feOffset dx="2" dy="2"/>
<feComposite in2="hardAlpha" operator="out"/>
<feColorMatrix type="matrix" values="0 0 0 0 0 0 0 0 0 0 0 0 0 0 0 0 0 0 1 0"/>
<feBlend mode="normal" in2="BackgroundImageFix" result="effect1_dropShadow_288_149"/>
<feBlend mode="normal" in="SourceGraphic" in2="effect1_dropShadow_288_149" result="shape"/>
</filter>
</defs>
</svg>
